<svg class="logo" viewBox="0 0 380 380" fill="none" xmlns="http://www.w3.org/2000/svg">
    <path fill-rule="evenodd" clip-rule="evenodd" d="M168.805 41.6913C170.977 41.6913 173.141 41.7332 175.292 41.8149L155.647 65.4583C76.1644 72.6548 17.1645 142.569 23.6381 222.285C30.1492 302.459 100.419 362.174 180.593 355.663C260.767 349.152 320.482 278.882 313.971 198.708C312.47 180.225 307.572 162.834 299.953 147.087H325.282C333.224 166.666 337.609 188.067 337.609 210.496C337.609 303.726 262.034 379.301 168.804 379.301C75.5745 379.301 -0.000488281 303.726 -0.000488281 210.496C-0.000488281 117.267 75.5747 41.6916 168.804 41.6916L168.805 41.6913Z" fill="#CEA23D"></path>
    <path fill-rule="evenodd" clip-rule="evenodd" d="M82.8496 194.131H163.282L124.118 340.947L285.478 146.784L205.759 146.779L245.204 -0.000183105L82.8496 194.131Z" fill="#CEA23D"></path>
    <path fill-rule="evenodd" clip-rule="evenodd" d="M169.099 41.8572C178.049 41.8572 186.836 42.5582 195.41 43.9007L173.649 70.7298C172.138 70.6806 170.623 70.6501 169.099 70.6501C91.7036 70.6501 28.9573 133.396 28.9573 210.791C28.9573 288.19 91.7036 350.937 169.099 350.937C246.497 350.937 309.244 288.19 309.244 210.791C309.244 187.727 303.669 165.964 293.796 146.774H325.471C333.564 166.52 338.036 188.132 338.036 210.791C338.036 304.093 262.4 379.729 169.099 379.729C75.8008 379.729 0.164062 304.093 0.164062 210.791C0.164062 117.494 75.8008 41.8575 169.099 41.8575L169.099 41.8572Z" fill="#CEA23D"></path>
</svg>