<svg xmlns="http://www.w3.org/2000/svg" xml:space="preserve" width="30" height="30" viewBox="0 0 1500 503">
  <g transform="translate(272.27 384.28) scale(2)">
    <linearGradient id="a" x1="-.002" x2=".955" y1="0" y2="0" gradientUnits="objectBoundingBox">
      <stop offset="0%" stop-color="#ff6cab"/><stop offset="100%" stop-color="#7366ff"/>
    </linearGradient>
    <path fill="url(#a)" d="M641.897 391.29h-66.05q-22.39 0-34.01-5.65t-15.64-18.47-4.02-34.11V137.94q0-21.73 4.02-34.44t15.64-18.25q11.62-5.55 34.01-5.55h59.75q52.15 0 80.18 19.13 28.03 19.12 28.03 53.88 0 17.17-7.83 31.29-7.82 14.13-20.53 24.12-12.71 10-27.7 14.99v.87q19.12 2.61 34.55 12.5 15.42 9.88 24.66 25.64 9.23 15.75 9.23 36.17 0 30.42-14.67 51.17-14.66 20.76-40.41 31.29-25.75 10.54-59.21 10.54m-49.54-232.93v154.06q0 14.56 5.21 20.86 5.22 6.3 19.56 6.3h16.51q21.95 0 35.31-11.3t13.36-30.86q0-18.68-13.03-29.33-13.04-10.65-33.68-10.65h.22q-5.22 0-7.83-1.52-5.65-3.69-11.62-8.58-5.98-4.89-12.93-11.84-2.17-2.83-2.17-4.13 0-1.74 2.17-4.13 6.95-6.95 12.93-11.95 5.97-5 11.62-8.47 3.05-1.52 7.83-1.52h-.22q12.82 0 23.57-9.56 10.76-9.57 10.76-29.99 0-20.64-11.52-27.49-11.51-6.84-29.55-6.84h-11.73q-14.34 0-19.56 6.08-5.21 6.09-5.21 20.86" transform="translate(-272.27 -384.27)"/>
  </g>
  <path fill="transparent" stroke="transparent" d="M470 0h560v503H470z"/>
</svg>